<svg width="466" height="301" viewBox="0 0 466 301" fill="none" xmlns="http://www.w3.org/2000/svg">
<path d="M99.7257 0.0753128C101.956 -0.104964 104.407 0.0669023 106.64 0.29106C116.954 1.38433 126.422 6.4949 132.994 14.516C139.191 22.0441 142.099 31.748 141.063 41.4426C139.396 56.6967 128.203 66.6622 116.462 75.0471C72.6599 106.333 61.1924 164.642 96.5606 208.236C111.923 227.13 134.182 239.129 158.416 241.58C200.487 245.848 239.988 220.689 253.893 180.766C261.15 160.1 256.236 133.876 273.797 120.637C301.109 100.047 338.443 122.973 334.776 156.304C332.78 174.443 317.477 181.148 304.832 191.113C284.625 209.895 273.402 230.165 269.861 257.882C267.714 274.675 265.36 290.33 247.728 297.587C229.221 305.203 214.762 294.478 197.651 288.759C173.881 280.505 149.729 282.37 126.63 292.161C111.198 298.702 96.8221 304.598 81.2709 294.008C63.8653 282.54 66.1735 261.886 62.4423 244.084C57.3296 219.692 44.1397 199.572 23.7101 185.385C13.1486 177.472 3.63269 170.937 0.863654 157.128C-4.40555 130.852 15.4692 120.891 32.433 106.801C49.1772 92.8947 60.4458 73.5607 63.9633 52.0718C65.9604 39.8715 65.494 26.0117 72.6718 15.5075C79.4282 5.87051 88.6172 2.08067 99.7257 0.0753128Z" fill="#3FC7F3"/>
<path d="M225.216 0.936453C254.937 -0.691435 264.847 17.3409 298.452 17.4403C321.673 20.3468 342.838 1.84433 364.064 0.98984C400.327 -0.469929 398.984 35.8703 403.379 57.2168C405.259 66.4692 408.526 75.3853 413.069 83.6632C424.396 104.148 435.983 109.571 452.901 123.672C461.227 131.322 465.299 139.426 465.438 150.731C465.995 172.772 445.208 182.984 430.801 195.541C415.575 208.583 403.394 229.221 401.649 249.64C399.628 273.288 393.592 299.177 363.89 300.051C353.61 300.393 343.615 296.641 336.102 289.618C328.897 282.877 324.672 273.547 324.36 263.687C323.747 237.897 349.039 229.071 365.675 211.742C371.846 204.668 375.879 199.402 380.197 190.956C391.105 169.432 392.933 144.438 385.272 121.558C377.848 98.5918 361.555 79.542 340.015 68.6413C317.973 57.6035 292.467 55.6919 269.024 63.3217C238.024 73.5752 214.866 99.6038 208.294 131.577C205.721 144.581 206.191 157.714 200.117 169.556C185.535 198.229 141.131 191.277 132.803 160.849C121.83 120.757 172.049 107.462 186.754 75.6604C199.897 47.2393 188.623 11.9806 225.216 0.936453Z" fill="#3FC7F3"/>
</svg>
